<?xml version="1.0" standalone="no"?>
<!DOCTYPE svg PUBLIC "-//W3C//DTD SVG 20010904//EN"
 "http://www.w3.org/TR/2001/REC-SVG-20010904/DTD/svg10.dtd">
<svg version="1.0" xmlns="http://www.w3.org/2000/svg"
 width="200.000000pt" height="43.000000pt" viewBox="0 0 200.000000 43.000000"
 preserveAspectRatio="xMidYMid meet">

<g transform="translate(0.000000,43.000000) scale(0.100000,-0.100000)"
fill="#000000" stroke="none">
<path d="M184 315 c1 -30 3 -50 4 -45 2 6 8 7 14 4 7 -5 8 6 3 32 -11 64 -21
68 -21 9z"/>
<path d="M211 345 c1 -19 18 -51 18 -35 0 8 -4 22 -9 30 -5 8 -9 11 -9 5z"/>
<path d="M417 232 c-21 -55 -37 -102 -37 -105 0 -4 11 -7 24 -7 16 0 27 7 31
20 9 29 80 29 95 0 12 -22 50 -28 50 -8 0 7 -16 54 -36 105 -33 86 -38 93 -63
93 -26 0 -30 -7 -64 -98z m81 -1 c9 -24 7 -31 -5 -36 -23 -8 -35 8 -27 39 8
34 20 33 32 -3z"/>
<path d="M602 235 c3 -101 10 -115 56 -115 15 0 22 6 22 20 0 11 -7 20 -15 20
-12 0 -15 16 -15 85 0 85 0 85 -26 85 l-26 0 4 -95z"/>
<path d="M900 225 c0 -97 1 -105 20 -105 16 0 19 8 22 58 3 56 3 57 36 60 l32
3 0 -60 c0 -54 2 -61 20 -61 18 0 20 7 20 75 0 82 1 80 -75 87 -22 2 -31 9
-33 26 -2 14 -10 22 -23 22 -18 0 -19 -8 -19 -105z"/>
<path d="M110 240 c-17 -33 -26 -60 -21 -60 17 0 41 12 41 21 0 4 -7 6 -16 2
-12 -4 -10 6 10 46 15 28 24 51 21 51 -2 0 -18 -27 -35 -60z"/>
<path d="M232 275 c0 -11 4 -33 8 -50 7 -27 8 -27 8 -5 0 14 -4 36 -8 50 -6
20 -8 21 -8 5z"/>
<path d="M710 174 c0 -97 1 -104 20 -104 15 0 20 7 20 25 0 22 4 25 36 25 63
0 74 12 74 85 0 73 -1 74 -92 73 l-58 -1 0 -103z m108 29 c-3 -35 -6 -38 -33
-38 -24 0 -31 5 -33 23 -6 38 5 52 38 52 30 0 31 -2 28 -37z"/>
<path d="M1097 273 c-20 -19 -5 -33 38 -33 25 0 45 -4 45 -10 0 -5 -17 -10
-38 -10 -45 0 -62 -14 -62 -51 0 -38 17 -47 88 -46 l62 0 0 67 c0 38 -5 71
-12 78 -13 13 -110 17 -121 5z m83 -103 c0 -5 -11 -10 -24 -10 -14 0 -28 5
-31 10 -4 6 7 10 24 10 17 0 31 -4 31 -10z"/>
<path d="M1260 260 c0 -16 7 -20 37 -20 l37 0 -37 -38 c-20 -21 -37 -48 -37
-60 0 -21 4 -22 70 -22 63 0 70 2 70 20 0 17 -7 20 -42 20 l-42 0 42 43 c63
64 58 77 -28 77 -63 0 -70 -2 -70 -20z"/>
<path d="M1432 268 c-15 -15 -16 -102 -2 -129 9 -15 22 -19 68 -19 32 0 63 5
70 12 7 7 12 37 12 68 0 31 -5 61 -12 68 -16 16 -120 16 -136 0z m98 -68 c0
-38 -2 -40 -30 -40 -28 0 -30 2 -30 40 0 38 2 40 30 40 28 0 30 -2 30 -40z"/>
<path d="M1612 201 c3 -70 5 -76 25 -79 20 -3 22 1 25 55 3 55 5 58 30 61 26
3 27 2 30 -55 3 -51 6 -58 26 -61 21 -3 22 0 22 66 0 44 -5 73 -12 80 -7 5
-44 10 -81 10 l-68 0 3 -77z"/>
<path d="M1812 268 c-17 -17 -16 -123 2 -137 8 -7 37 -11 68 -9 42 2 54 7 56
21 3 16 -2 18 -39 15 -27 -2 -44 1 -46 10 -3 8 10 12 46 12 l51 0 0 38 c0 21
-5 43 -12 50 -16 16 -110 16 -126 0z m86 -35 c-2 -10 -12 -18 -23 -18 -11 0
-21 8 -23 18 -3 13 3 17 23 17 20 0 26 -4 23 -17z"/>
<path d="M262 235 c0 -16 2 -22 5 -12 2 9 2 23 0 30 -3 6 -5 -1 -5 -18z"/>
<path d="M212 230 c0 -14 2 -19 5 -12 2 6 2 18 0 25 -3 6 -5 1 -5 -13z"/>
<path d="M147 203 c-14 -14 -6 -23 21 -22 16 0 21 3 12 6 -8 3 -18 10 -21 15
-3 4 -8 5 -12 1z"/>
<path d="M271 174 c0 -16 4 -38 9 -49 6 -13 7 -5 3 25 -7 53 -13 66 -12 24z"/>
<path d="M213 176 c4 -11 -3 -16 -26 -19 -31 -4 -31 -4 6 -5 27 -2 37 -6 37
-19 0 -9 2 -14 5 -11 8 8 -7 68 -17 68 -6 0 -8 -6 -5 -14z"/>
<path d="M80 129 c0 -5 -4 -8 -8 -5 -5 3 -6 -9 -3 -27 l5 -32 9 33 c6 17 14
32 19 32 5 0 6 -6 2 -12 -6 -10 -5 -10 7 -1 8 6 30 13 49 16 25 3 18 4 -22 5
-35 1 -58 -2 -58 -9z"/>
</g>
</svg>
